<svg xmlns="http://www.w3.org/2000/svg" xmlns:xlink="http://www.w3.org/1999/xlink" contentStyleType="text/css" height="257px" preserveAspectRatio="none" style="width:715px;height:257px;background:#FFFFFF;" version="1.1" viewBox="0 0 715 257" width="715px" zoomAndPan="magnify"><defs/><g><!--cluster BDI Network--><g id="cluster_BDI Network"><rect fill="none" height="244.98" rx="2.5" ry="2.5" style="stroke:#181818;stroke-width:1.0;" width="246" x="7" y="7"/><text fill="#000000" font-family="sans-serif" font-size="14" font-weight="bold" lengthAdjust="spacing" textLength="90.0566" x="84.9717" y="22.5352">BDI Network</text></g><!--cluster Poort8 Network--><g id="cluster_Poort8 Network"><rect fill="none" height="87.49" rx="2.5" ry="2.5" style="stroke:#181818;stroke-width:1.0;" width="204" x="277" y="164.49"/><text fill="#000000" font-family="sans-serif" font-size="14" font-weight="bold" lengthAdjust="spacing" textLength="113.2373" x="322.3813" y="180.0252">Poort8 Network</text></g><!--cluster iSHARE Network--><g id="cluster_iSHARE Network"><rect fill="none" height="87.49" rx="2.5" ry="2.5" style="stroke:#181818;stroke-width:1.0;" width="204" x="505" y="164.49"/><text fill="#000000" font-family="sans-serif" font-size="14" font-weight="bold" lengthAdjust="spacing" textLength="117.3457" x="548.3271" y="180.0252">iSHARE Network</text></g><!--entity asr--><g id="elem_asr"><rect fill="#F1F1F1" height="36.4883" rx="2.5" ry="2.5" style="stroke:#181818;stroke-width:0.5;" width="153.2803" x="76.36" y="199.49"/><text fill="#000000" font-family="sans-serif" font-size="14" lengthAdjust="spacing" textLength="133.2803" x="86.36" y="223.0252">Assocation Registry</text></g><!--entity WMS--><g id="elem_WMS"><rect fill="#F1F1F1" height="36.4883" rx="2.5" ry="2.5" style="stroke:#181818;stroke-width:0.5;" width="51.5752" x="106.21" y="42"/><text fill="#000000" font-family="sans-serif" font-size="14" lengthAdjust="spacing" textLength="31.5752" x="116.21" y="65.5352">WMS</text></g><!--entity TMS--><g id="elem_TMS"><rect fill="#F1F1F1" height="36.4883" rx="2.5" ry="2.5" style="stroke:#181818;stroke-width:0.5;" width="48.4512" x="22.77" y="42"/><text fill="#000000" font-family="sans-serif" font-size="14" lengthAdjust="spacing" textLength="28.4512" x="32.77" y="65.5352">TMS</text></g><!--entity ERP--><g id="elem_ERP"><rect fill="#F1F1F1" height="36.4883" rx="2.5" ry="2.5" style="stroke:#181818;stroke-width:0.5;" width="44.1787" x="192.91" y="42"/><text fill="#000000" font-family="sans-serif" font-size="14" lengthAdjust="spacing" textLength="24.1787" x="202.91" y="65.5352">ERP</text></g><!--entity ar1--><g id="elem_ar1"><rect fill="#F1F1F1" height="36.4883" rx="2.5" ry="2.5" style="stroke:#181818;stroke-width:0.5;" width="172.25" x="292.88" y="199.49"/><text fill="#000000" font-family="sans-serif" font-size="14" lengthAdjust="spacing" textLength="152.25" x="302.88" y="223.0252">Authorization Registry</text></g><!--entity ar2--><g id="elem_ar2"><rect fill="#F1F1F1" height="36.4883" rx="2.5" ry="2.5" style="stroke:#181818;stroke-width:0.5;" width="172.25" x="520.88" y="199.49"/><text fill="#000000" font-family="sans-serif" font-size="14" lengthAdjust="spacing" textLength="152.25" x="530.88" y="223.0252">Authorization Registry</text></g><!--link WMS to asr--><g id="link_WMS_asr"><path d="M134.37,78.78 C138.4,108.64 145.7568,163.104 149.8068,193.084 " fill="none" id="WMS-to-asr" style="stroke:#181818;stroke-width:1.0;"/><polygon fill="#181818" points="150.61,199.03,153.3691,189.5755,149.9406,194.075,145.4411,190.6465,150.61,199.03" style="stroke:#181818;stroke-width:1.0;"/></g><!--link WMS to ar1--><g id="link_WMS_ar1"><path d="M158.23,73.09 C188.47,87.17 239.26,112.09 280,138.49 C308.87,157.19 335.0084,178.4806 354.4284,195.1606 " fill="none" id="WMS-to-ar1" style="stroke:#181818;stroke-width:1.0;"/><polygon fill="#181818" points="358.98,199.07,354.7589,190.1716,355.187,195.8122,349.5464,196.2403,358.98,199.07" style="stroke:#181818;stroke-width:1.0;"/></g><!--link WMS to ar2--><g id="link_WMS_ar2"><path d="M158.18,72.38 C163.68,74.54 169.49,76.69 175,78.49 C308.42,122.04 349.05,108.66 481,156.49 C513.82,168.39 544.275,183.186 569.285,196.286 " fill="none" id="WMS-to-ar2" style="stroke:#181818;stroke-width:1.0;"/><polygon fill="#181818" points="574.6,199.07,568.4834,191.3507,570.1708,196.75,564.7715,198.4374,574.6,199.07" style="stroke:#181818;stroke-width:1.0;"/></g><!--link TMS to asr--><g id="link_TMS_asr"><path d="M58.95,78.78 C79.31,108.64 117.1101,164.0926 137.5501,194.0726 " fill="none" id="TMS-to-asr" style="stroke:#181818;stroke-width:1.0;"/><polygon fill="#181818" points="140.93,199.03,139.1651,189.3406,138.1134,194.8988,132.5552,193.8471,140.93,199.03" style="stroke:#181818;stroke-width:1.0;"/></g><!--link ERP to ar2--><g id="link_ERP_ar2"><path d="M237.22,63.82 C287.96,70.37 415.24,90.66 510,138.49 C541.29,154.29 567.5293,177.2259 585.7393,195.0259 " fill="none" id="ERP-to-ar2" style="stroke:#181818;stroke-width:1.0;"/><polygon fill="#181818" points="590.03,199.22,586.39,190.0685,586.4544,195.7249,580.798,195.7894,590.03,199.22" style="stroke:#181818;stroke-width:1.0;"/></g><!--link TMS to ar1--><g id="link_TMS_ar1"><path d="M71.46,72.44 C110.1,90.13 187.57,125.73 253,156.49 C283.17,170.68 311.8731,184.3989 336.9831,196.4789 " fill="none" id="TMS-to-ar1" style="stroke:#181818;stroke-width:1.0;"/><polygon fill="#181818" points="342.39,199.08,336.0138,191.5737,337.8843,196.9124,332.5456,198.7828,342.39,199.08" style="stroke:#181818;stroke-width:1.0;"/></g><!--link ar1 to asr--><g id="link_ar1_asr"><path d="M292.46,217.74 C271.57,217.74 256.69,217.74 235.8,217.74 " fill="none" id="ar1-to-asr" style="stroke:#181818;stroke-width:1.0;"/><polygon fill="#181818" points="229.8,217.74,238.8,221.74,234.8,217.74,238.8,213.74,229.8,217.74" style="stroke:#181818;stroke-width:1.0;"/></g><!--link ar2 to asr--><g id="link_ar2_asr"><path d="M568.68,199.11 C543.71,186.97 510.42,170.79 481,156.49 C473.22,152.71 471.93,149.93 463.5,147.99 C426.9,139.57 331.1,139.57 294.5,147.99 C252.46,157.66 213.6815,178.6557 186.1415,195.8257 " fill="none" id="ar2-to-asr" style="stroke:#181818;stroke-width:1.0;"/><polygon fill="#181818" points="181.05,199,190.8035,197.6328,185.2929,196.3547,186.571,190.8441,181.05,199" style="stroke:#181818;stroke-width:1.0;"/></g><!--SRC=[AqfDBadCIyz9LL1oSl5Ky4ijASylobPIgEPIW88YX0h7ukByvCIIpFmyXQ3KzCpYag9A9ON4OY0gmgOyt3TO2Pju20vnrw009QvQBYuaeO3y_A8I2qBEAYt9o2_AhCBciY93D1CpWpqSWrmfCT48P2BGRmgwkhfsOByZE43ha3X6N278oe3-moO3r0F42Z1LG4aO6m00]--></g></svg>